# xmcd
#
# Track frame offsets:
#	150
#	13252
#	22780
#	36207
#	56765
#	77285
#	93707
#	107467
#	127030
#	141757
#	150957
#	167930
#	183655
#
# Disc length: 2735 seconds
# Revision: 0
# Processed by: cddbd v1.5.2PL0 Copyright (c) Steve Scherf et al.
# Submitted via: dBpowerAMP V12.0
#
DISCID=a00aad0d
DTITLE=Carlos Zens - Potyguara
DYEAR=2001
DGENRE=Brazil
TTITLE0=Xote Emocionado
TTITLE1=Forró Com Lampião
TTITLE2=Choro Maxixe
TTITLE3=Alma Rosa
TTITLE4=Reflexos das Águas
TTITLE5=Amizades
TTITLE6=Caipora
TTITLE7=Praça Manacá
TTITLE8=Desolação Nordestina
TTITLE9=Vaga-Lume
TTITLE10=Potyguara
TTITLE11=Água Marinha
TTITLE12=Amor de Luar
EXTD=
EXTT0=
EXTT1=
EXTT2=
EXTT3=
EXTT4=
EXTT5=
EXTT6=
EXTT7=
EXTT8=
EXTT9=
EXTT10=
EXTT11=
EXTT12=
PLAYORDER=
